<svg xmlns="http://www.w3.org/2000/svg" width="18" height="23" fill="none" viewBox="0 0 12 14">
  <path fill="#fff" d="M8.116 2.16l.32 1.035a.85.85 0 111.623-.501l.709 2.293c.8 2.588 2.238 7.245-1.551 8.416-4.33 1.338-8.574-4.721-8.193-5.406.465-.834 1.61.197 1.944.533 2.576 2.598 1.7-.24 1.378-1.282l-.002-.008-.063-.23-1.036-3.344a.85.85 0 011.62-.51l-.123-.398-.194-.63a.85.85 0 011.624-.501l1.508 4.88-1.12-3.622-.068-.223a.85.85 0 011.624-.502z"/>
  <path stroke="#343644" stroke-width="0.4px" d="M8.116 2.16l-.192.06.192-.06zm.32 1.035l.19-.059-.19.06zm.068.224l.191-.06-.19.06zm.768 3.164a.2.2 0 10.383-.118l-.383.118zM6.56 2.885l.192-.059-.192.06zm-.068-.223l-.192.06.192-.06zm3.567.032l-.19.059.19-.06zm-5.192.47l-.19.058.19-.059zM6.056 7.01l-.191.059a.2.2 0 00.382-.118l-.191.059zm-1.775 0l.193-.053-.002-.007-.191.06zM3.245 3.666l-.192.059.192-.06zm.56-1.064l.06.192-.06-.192zM2.968 8.53l.142-.14-.142.14zm-1.944-.533L.849 7.9l.175.097zm8.193 5.406l-.06-.191.06.191zm1.55-8.416l.192-.059-.191.06zM4.345 7.24l-.194.053.002.006.192-.059zm.002.008l-.191.06.19-.06zm1.826-5.621l-.191.059.19-.059zm1.316 4.94a.2.2 0 10.383-.118l-.383.118zM5.11 1.066l-.06-.191.06.19zm-.561 1.063l.19-.06-.19.06zm.388 1.258l-.19.059.19-.06zm-.194-.63l-.19.06.19-.06zm3.182-.538l.32 1.036.382-.119-.32-1.035-.382.118zm.32 1.036l.07.223.381-.118-.069-.224-.382.119zm.07.223l.958 3.105.383-.118-.96-3.105-.382.118zm-1.562-.652l-.07-.223-.382.118.07.223.382-.118zm.36-1.036a.65.65 0 01.812.43l.383-.119a1.05 1.05 0 00-1.313-.693l.118.382zm-.118-.382A1.05 1.05 0 006.3 2.721l.383-.118a.65.65 0 01.429-.813l-.118-.382zm2.061.916a.65.65 0 01.813.429l.382-.118a1.05 1.05 0 00-1.313-.693l.118.382zm-.118-.382a1.05 1.05 0 00-.693 1.313l.382-.119a.65.65 0 01.43-.812l-.119-.382zm-4.26 1.28L5.864 7.07l.382-.118-1.188-3.847-.383.118zM4.471 6.95L3.436 3.606l-.383.119L4.09 7.069l.382-.119zm-.608-4.156a.65.65 0 01.81.423l.382-.12a1.05 1.05 0 00-1.31-.686l.118.383zm.81.423l.002.005.383-.118a.886.886 0 00-.003-.008l-.381.121zm-.928-.806a1.05 1.05 0 00-.693 1.314l.383-.119a.65.65 0 01.428-.812l-.118-.383zM3.11 8.39c-.17-.172-.559-.533-.975-.744-.206-.104-.443-.184-.675-.164-.249.021-.464.155-.61.418l.349.194c.086-.154.187-.204.295-.214.124-.01.281.032.46.123.357.18.708.504.872.668l.284-.281zM.85 7.9a.503.503 0 00-.043.312c.014.103.048.218.095.34.095.246.254.546.464.875.42.658 1.062 1.45 1.852 2.178 1.569 1.447 3.786 2.69 6.058 1.99l-.118-.383c-2.06.636-4.129-.48-5.67-1.9A11.16 11.16 0 011.704 9.21a4.727 4.727 0 01-.428-.802 1.182 1.182 0 01-.071-.25c-.01-.068.003-.079-.005-.065L.849 7.9zm8.426 5.694c.99-.306 1.653-.845 2.066-1.533.41-.683.564-1.494.571-2.333.014-1.67-.556-3.513-.954-4.8l-.382.118c.401 1.3.95 3.081.936 4.679-.007.796-.153 1.53-.514 2.13-.358.596-.937 1.078-1.841 1.357l.118.382zM4.152 7.3l.003.008.382-.118-.002-.008-.383.118zm.003.008c.08.261.194.627.279.992.087.372.138.712.111.93-.013.112-.042.15-.053.158-.002.003-.007.006-.021.008a.254.254 0 01-.098-.014c-.104-.032-.257-.113-.472-.276a7.92 7.92 0 01-.791-.715l-.284.281c.326.329.6.575.833.752.23.174.427.29.599.34.174.053.352.048.492-.07.127-.106.174-.269.192-.415.036-.296-.031-.699-.119-1.07-.089-.38-.206-.76-.286-1.019l-.382.118zM5.98 1.686l1.507 4.88.383-.117-1.508-4.881-.382.118zm-.813-.429a.65.65 0 01.813.429l.382-.118A1.05 1.05 0 005.05.875l.118.382zM5.05.875a1.05 1.05 0 00-.693 1.313l.382-.118a.65.65 0 01.429-.813L5.05.875zm-.513 6.313l-.063-.23-.386.104.062.23.387-.104zm1.71-.237l-1.12-3.623-.382.118 1.12 3.623.382-.118zm1.624-.502L6.75 2.826l-.382.118 1.12 3.623.382-.118zM5.128 3.328l-.072-.23-.382.118.071.23.383-.118zm-.072-.23l-.123-.4-.382.119.123.399.382-.118zm-.123-.4L4.74 2.07l-.382.118.194.629.382-.118zm4.935.055l.709 2.293.382-.118-.709-2.293-.382.118z"/>
</svg>
