<svg width="58" height="56" viewBox="0 0 58 56" fill="none" xmlns="http://www.w3.org/2000/svg">
<g filter="url(#filter0_d_3729_19159)">
<path d="M11.4284 11C18.3691 -0.999998 35.7208 -1 42.6615 11L49.6021 23C56.5428 35 47.867 50 33.9856 50H20.1043C6.22289 50 -2.45297 35 4.48771 23L11.4284 11Z" fill="white"/>
<path d="M11.4284 11C18.3691 -0.999998 35.7208 -1 42.6615 11L49.6021 23C56.5428 35 47.867 50 33.9856 50H20.1043C6.22289 50 -2.45297 35 4.48771 23L11.4284 11Z" stroke="#04D98B" stroke-width="3"/>
</g>
<path d="M22.6414 24.1569L17.8687 26.391L15.7734 33.875H38.314L34.4725 22.5931L26.4828 18.125L22.6414 24.1569ZM22.6414 24.1569L25.2023 25.4973L26.4828 28.7367" stroke="#343644" stroke-width="2.5" stroke-linecap="round" stroke-linejoin="round"/>
<defs>
<filter id="filter0_d_3729_19159" x="0.541992" y="0.5" width="57.0059" height="55" filterUnits="userSpaceOnUse" color-interpolation-filters="sRGB">
<feFlood flood-opacity="0" result="BackgroundImageFix"/>
<feColorMatrix in="SourceAlpha" type="matrix" values="0 0 0 0 0 0 0 0 0 0 0 0 0 0 0 0 0 0 127 0" result="hardAlpha"/>
<feOffset dx="4" dy="4"/>
<feComposite in2="hardAlpha" operator="out"/>
<feColorMatrix type="matrix" values="0 0 0 0 0 0 0 0 0 0 0 0 0 0 0 0 0 0 0.07 0"/>
<feBlend mode="normal" in2="BackgroundImageFix" result="effect1_dropShadow_3729_19159"/>
<feBlend mode="normal" in="SourceGraphic" in2="effect1_dropShadow_3729_19159" result="shape"/>
</filter>
</defs>
</svg>
