<svg width="46" height="46" viewBox="0 0 54 56" fill="none" xmlns="http://www.w3.org/2000/svg">
<g filter="url(#filter0_d_3729_19159)">
<path d="M10.6328 11C17.0182 -0.999998 32.9818 -1 39.3672 11L45.7526 23C52.1381 35 44.1563 50 31.3854 50H18.6146C5.84373 50 -2.13806 35 4.24736 23L10.6328 11Z" fill="white"/>
<path d="M10.6328 11C17.0182 -0.999998 32.9818 -1 39.3672 11L45.7526 23C52.1381 35 44.1563 50 31.3854 50H18.6146C5.84373 50 -2.13806 35 4.24736 23L10.6328 11Z" stroke="#04D98B" stroke-width="3"/>
</g>
<path d="M21.82 16.1689L18.3731 17.7824L16.8599 23.1875H33.1391L30.3648 15.0394L24.5944 11.8125L21.82 16.1689ZM21.82 16.1689L23.6696 17.137L24.5944 19.4765" stroke="#343644" stroke-width="2" stroke-linecap="round" stroke-linejoin="round"/>
<defs>
<filter id="filter0_d_3729_19159" x="0.512207" y="0.5" width="52.9756" height="55" filterUnits="userSpaceOnUse" color-interpolation-filters="sRGB">
<feFlood flood-opacity="0" result="BackgroundImageFix"/>
<feColorMatrix in="SourceAlpha" type="matrix" values="0 0 0 0 0 0 0 0 0 0 0 0 0 0 0 0 0 0 127 0" result="hardAlpha"/>
<feOffset dx="4" dy="4"/>
<feComposite in2="hardAlpha" operator="out"/>
<feColorMatrix type="matrix" values="0 0 0 0 0 0 0 0 0 0 0 0 0 0 0 0 0 0 0.07 0"/>
<feBlend mode="normal" in2="BackgroundImageFix" result="effect1_dropShadow_3729_19159"/>
<feBlend mode="normal" in="SourceGraphic" in2="effect1_dropShadow_3729_19159" result="shape"/>
</filter>
</defs>
</svg>
