<svg xmlns="http://www.w3.org/2000/svg" width="30" height="28" fill="none" viewBox="0 0 21 19">
  <path fill="#fff" stroke="#05F6A0" d="M3.018 6.243c.794-.58 2.125-1.72 2.691-2.218 1.754 3.79 5.47 2.513 7.11 1.401a229.53 229.53 0 004.124 7.385c2.085 3.55.806 4.23.1 4.999-8.309-6.865-10.16-6.274-12.977-7.007-2.817-.732-2.04-3.835-1.048-4.56z"/>
  <path stroke="#05F6A0" d="M13.74 7.035l-2.843 1.316 1.297 1.081 2.226-1.118M15.342 9.923l-1.61.922 1.298 1.081.992-.724"/>
  <path stroke="#05F6A0" stroke-linejoin="round" d="M6.111 1.45l-.402 2.575 1.833-2.353L6.11 1.45z"/>
</svg>
