<svg xmlns="http://www.w3.org/2000/svg" width="20" height="21" fill="none" viewBox="0 0 13 14">
  <circle fill='none' stroke='#FF984D' cx="6.5" cy="6.636" r="6" />
  <path fill='#FF984D' stroke='none' fill-rule="evenodd" d="M6.764 3.636c.577 0 1.04.158 1.387.475.348.316.521.749.521 1.297 0 .571-.18 1-.542 1.29-.362.288-.843.432-1.442.432l-.034.67h-.84l-.042-1.332h.28c.548 0 .968-.073 1.26-.22.29-.147.436-.427.436-.84 0-.3-.086-.534-.259-.704-.172-.17-.411-.254-.716-.254-.306 0-.546.082-.721.246-.176.164-.263.393-.263.687H4.88c0-.34.077-.642.23-.908.152-.266.371-.472.657-.619.285-.147.617-.22.996-.22zm-.542 6.038a.599.599 0 01-.441-.178.599.599 0 01-.178-.441c0-.176.059-.323.178-.441a.599.599 0 01.44-.179c.17 0 .315.06.433.179a.599.599 0 01.178.44c0 .176-.059.323-.178.442a.589.589 0 01-.432.178z" clip-rule="evenodd"/>
</svg>
