<svg xmlns="http://www.w3.org/2000/svg" fill="none" viewBox="0 0 12 16">
  <path stroke='none' d="M10.89 2.898a.5.5 0 000-1v1zm-3.092-.5l-.497.049.044.45h.453v-.5zm-4 0v.5h.454l.044-.451-.498-.05zm-3.092-.5a.5.5 0 100 1v-1zm10.184 0H7.798v1h3.092v-1zm-2.594.45A2.51 2.51 0 007.484.736l-.672.741c.278.252.452.598.489.97l.995-.097zM7.484.736a2.51 2.51 0 00-1.686-.65v1c.375 0 .736.14 1.014.391l.672-.74zM5.798.085a2.51 2.51 0 00-1.685.65l.672.741a1.51 1.51 0 011.013-.39v-1zm-1.685.65a2.51 2.51 0 00-.812 1.614l.995.098a1.51 1.51 0 01.489-.97L4.113.734zm-.315 1.163H.706v1h3.092v-1z"/>
  <path fill="none" d="M10.186 4.307H1.41a.498.498 0 00-.498.537L1.695 14.9a.498.498 0 00.494.462h7.218a.498.498 0 00.495-.462l.781-10.057a.498.498 0 00-.497-.537v0z"/>
</svg>
