<svg xmlns="http://www.w3.org/2000/svg" width="17" height="13" fill="none" viewBox="0 0 17 13">
  <path stroke="#04D98B" d="M15.693 9.808s.841-1.906.795-3.183c.039-1.266-.656-3.183-.656-3.183s.473-.653.276-1.018a.694.694 0 00-.276-.295c-.396-.25-1.175.295-1.175.295s-3.645-1.093-6.045-1.05c-2.174.04-5.457 1.05-5.457 1.05S2.44 1.92 2.049 2.13a.684.684 0 00-.31.295c-.21.363.31 1.018.31 1.018s-.84 1.906-.794 3.183c-.039 1.266.656 3.183.656 3.183s-.474.653-.276 1.018c.074.137.14.21.276.295.395.25 1.174-.295 1.174-.295s3.646 1.093 6.045 1.05c2.175-.04 5.458-1.05 5.458-1.05s.714.504 1.105.295a.684.684 0 00.311-.295c.21-.363-.31-1.018-.31-1.018z"/>
  <path stroke="#04D98B" stroke-linecap="round" stroke-linejoin="round" stroke-width=".6" d="M12.547 9.469s-2.156.699-3.584.726c-1.576.03-3.97-.726-3.97-.726"/>
</svg>
