<svg xmlns="http://www.w3.org/2000/svg" width="5" height="8" fill="none" viewBox="0 0 5 8">
  <mask id="a" fill="#fff">
    <path fill-rule="evenodd" d="M2.42.432c.68 0 1.226.187 1.637.56.41.375.615.885.615 1.533 0 .674-.213 1.182-.64 1.522-.428.34-.995.51-1.703.51l-.04.792h-.991l-.05-1.572h.33c.648 0 1.143-.087 1.487-.26.344-.174.516-.505.516-.992 0-.354-.102-.63-.306-.831-.203-.2-.485-.3-.846-.3-.36 0-.644.096-.85.29-.208.193-.311.464-.311.811H.196c0-.4.09-.758.27-1.071.18-.314.44-.558.777-.731.337-.174.729-.26 1.176-.26zm-.641 7.13a.707.707 0 01-.52-.21.707.707 0 01-.211-.522c0-.207.07-.38.21-.52.14-.14.314-.21.52-.21.201 0 .371.07.512.21.14.14.21.313.21.52 0 .207-.07.38-.21.521-.14.14-.31.21-.511.21z" clip-rule="evenodd"/>
  </mask>
  <path fill="#04D98B" d="M2.33 4.558v-2H.427L.332 4.457l1.997.1zm-.04.79v2h1.9l.097-1.898-1.998-.101zm-.992 0l-2 .065.062 1.936h1.938v-2zm-.05-1.571v-2H-.817l.066 2.063 1.999-.063zm.33 0v-2 2zm.851-2.384v2-2zM1.268 2.495v2h2v-2h-2zm-1.072 0h-2v2h2v-2zM1.78 7.561v-2 2zm.64-5.129a.87.87 0 01.293.04H2.71L5.403-.486c-.858-.78-1.923-1.082-2.984-1.082v4zm.291.04a.208.208 0 01-.047-.07c-.008-.02.01.01.01.123h4c0-1.108-.373-2.194-1.27-3.01L2.71 2.471zm-.038.053c0 .129-.02.15-.003.11a.386.386 0 01.116-.152l2.493 3.128c1.014-.808 1.394-1.96 1.394-3.086h-4zm.113-.042s-.004.004-.014.008a.36.36 0 01-.06.023c-.065.02-.186.044-.382.044v4c1.026 0 2.075-.25 2.949-.947L2.785 2.483zM.332 4.457l-.04.79 3.995.203.04-.791-3.995-.202zm1.957-1.108h-.991v4h.991v-4zm1.008 1.936l-.05-1.572-3.998.127.05 1.573 3.998-.128zm-2.05.492h.331v-4h-.33v4zm.331 0c.774 0 1.636-.095 2.389-.475L2.164 1.73c.048-.024.037-.009-.073.01a3.064 3.064 0 01-.513.036v4zm2.389-.475c1.206-.61 1.614-1.773 1.614-2.777h-4c0 .018-.004-.116.097-.31.114-.22.297-.389.486-.484l1.803 3.57zM5.58 2.525c0-.754-.23-1.595-.903-2.257L1.873 3.12a1.042 1.042 0 01-.246-.378.668.668 0 01-.046-.217h4zM4.678.268C4.008-.39 3.17-.607 2.429-.607v4a.61.61 0 01-.187-.04 1.022 1.022 0 01-.369-.233L4.678.268zM2.429-.607c-.724 0-1.547.203-2.217.83l2.732 2.921a.994.994 0 01-.352.215c-.103.035-.166.034-.163.034v-4zM.212.223c-.7.655-.944 1.505-.944 2.272h4a.738.738 0 01-.055.252 1.08 1.08 0 01-.269.397L.212.224zm1.056.272H.196v4h1.072v-4zm.928 2c0-.05.006-.074.007-.079l-.002.004L-1.268.427a4.11 4.11 0 00-.536 2.068h4zm.005-.075a.21.21 0 01-.034.042c-.015.014-.022.016-.009.009L.328-1.086A3.846 3.846 0 00-1.269.427L2.201 2.42zm-.043.05c.008-.003.075-.038.261-.038v-4a4.53 4.53 0 00-2.092.482l1.831 3.557zm-.38 3.091a1.297 1.297 0 01.894.375l-2.828 2.83a2.706 2.706 0 001.935.795v-4zm.894.376a1.297 1.297 0 01.376.893h-4c0 .712.263 1.402.796 1.935l2.828-2.828zm.376.893a1.297 1.297 0 01-.376.894L-.156 4.895A2.706 2.706 0 00-.952 6.83h4zm-.376.894a1.297 1.297 0 01-.893.375v-4c-.712 0-1.402.263-1.935.796l2.828 2.829zm-.893.375a1.29 1.29 0 01-.904-.375l2.829-2.829c-.52-.52-1.2-.796-1.925-.796v4zm-.904-.375A1.297 1.297 0 01.5 6.83h4c0-.711-.263-1.401-.796-1.935L.875 7.724zM.5 6.83a1.297 1.297 0 01.376-.894l2.828 2.83A2.706 2.706 0 004.5 6.83h-4zm.375-.893a1.29 1.29 0 01.904-.376v4c.724 0 1.405-.276 1.925-.796L.875 5.937z" mask="url(#a)"/>
</svg>
