<svg xmlns="http://www.w3.org/2000/svg" width="13" height="14" fill="none" viewBox="0 0 13 14">
  <circle cx="6.5" cy="6.636" r="6" stroke="#04D98B"/>
  <mask id="a" fill="#fff">
    <path fill-rule="evenodd" d="M6.764 3.636c.577 0 1.04.158 1.387.475.348.316.521.749.521 1.297 0 .571-.18 1-.542 1.29-.362.288-.843.432-1.442.432l-.034.67h-.84l-.042-1.332h.28c.548 0 .968-.073 1.26-.22.29-.147.436-.427.436-.84 0-.3-.086-.534-.259-.704-.172-.17-.411-.254-.716-.254-.306 0-.546.082-.721.246-.176.164-.263.393-.263.687H4.88c0-.34.077-.642.23-.908.152-.266.371-.472.657-.619.285-.147.617-.22.996-.22zm-.542 6.038a.599.599 0 01-.441-.178.599.599 0 01-.178-.441c0-.176.059-.323.178-.441a.599.599 0 01.44-.179c.17 0 .315.06.433.179a.599.599 0 01.178.44c0 .176-.059.323-.178.442a.589.589 0 01-.432.178z" clip-rule="evenodd"/>
  </mask>
  <path fill="#04D98B" d="M6.688 7.13v-4H2.885l-.192 3.798 3.995.202zm-.034.67v4h3.803l.192-3.798L6.654 7.8zm-.84 0l-3.998.127.124 3.873h3.874v-4zm-.042-1.332v-4h-4.13l.132 4.128 3.998-.128zm.28 0v-4 4zm.72-2.018v4-4zm-.983.933v4h4v-4h-4zm-.908 0h-4v4h4v-4zm1.34 4.29v-4 4zm.543-2.037a1.64 1.64 0 01-.517-.097 2.283 2.283 0 01-.79-.47l5.387-5.916C9.602.022 8.1-.364 6.764-.364v8zm-1.306-.568a2.485 2.485 0 01-.627-.904 2.062 2.062 0 01-.159-.756h8c0-1.469-.507-3.053-1.828-4.255L5.458 7.068zm-.786-1.66c0-.13.02-.428.178-.802.167-.397.44-.76.787-1.037l4.985 6.256c1.536-1.223 2.05-2.942 2.05-4.417h-8zm.965-1.839c.532-.424 1.015-.44 1.05-.44v8c1.236 0 2.68-.303 3.935-1.303L5.637 3.569zM2.693 6.928l-.034.67 7.99.404.034-.67-7.99-.404zM6.653 3.8h-.839v8h.84v-8zm3.16 3.872L9.77 6.341l-7.996.255.042 1.331 7.996-.255zm-4.041 2.796h.28v-8h-.28v8zm.28 0c.801 0 1.954-.09 3.062-.65L5.508 2.678c.294-.148.514-.192.58-.204.072-.012.069-.005-.036-.005v8zm3.062-.65c2.017-1.018 2.634-2.964 2.634-4.41h-8c0-.245.041-.748.342-1.326a3.272 3.272 0 011.418-1.405l3.606 7.142zm2.634-4.41c0-1.1-.342-2.462-1.454-3.556l-5.61 5.704a3.072 3.072 0 01-.936-2.148h8zm-1.454-3.556C9.19.768 7.838.45 6.773.45v8a3.04 3.04 0 01-2.089-.894l5.61-5.704zM6.773.45C5.74.45 4.42.744 3.319 1.775l5.465 5.842a3.006 3.006 0 01-2.011.833v-8zM3.319 1.775C2.16 2.86 1.79 4.249 1.79 5.383h8c0 .247-.037.614-.199 1.037-.168.44-.44.855-.806 1.197L3.32 1.775zm2.47-.392H4.88v8h.908v-8zm3.092 4c0 .283-.07.681-.302 1.085L1.642 2.483a5.786 5.786 0 00-.76 2.9h8zM8.58 6.468c-.25.435-.615.757-.98.944L3.937.3a5.563 5.563 0 00-2.295 2.183l6.937 3.985zm-.98.944a1.88 1.88 0 01-.835.224v-8A6.14 6.14 0 003.937.3l3.662 7.112zM6.222 5.674a3.405 3.405 0 012.387.993l-5.657 5.657a4.598 4.598 0 003.27 1.35v-8zm2.387.993a3.405 3.405 0 01.994 2.388h-8c0 1.184.445 2.364 1.35 3.269l5.656-5.657zm.994 2.388a3.404 3.404 0 01-.993 2.387L2.951 5.785a4.598 4.598 0 00-1.35 3.27h8zm-.994 2.387a3.405 3.405 0 01-2.387.993v-8a4.598 4.598 0 00-3.27 1.35l5.657 5.657zm-2.387.993a3.399 3.399 0 01-2.396-.993l5.657-5.657a4.588 4.588 0 00-3.261-1.35v8zm-2.396-.993a3.404 3.404 0 01-.994-2.387h8a4.598 4.598 0 00-1.35-3.27l-5.656 5.657zm-.994-2.387a3.405 3.405 0 01.993-2.387l5.658 5.656a4.598 4.598 0 001.35-3.27h-8zm.994-2.388a3.399 3.399 0 012.396-.993v8a4.588 4.588 0 003.26-1.35L3.827 6.667z" mask="url(#a)"/>
</svg>
