<svg xmlns="http://www.w3.org/2000/svg" width="13" height="13" fill="none" viewBox="0 0 13 13">
  <path stroke="#04D98B" d="M12.139 3.703v-.001A3.153 3.153 0 008.995.558l-.002.5v-.5H3.702A3.153 3.153 0 00.558 3.702h0v5.293a3.153 3.153 0 003.144 3.144h5.293a3.154 3.154 0 003.144-3.144V3.703zM3.703.5h5.29a3.214 3.214 0 013.204 3.203v5.29a3.214 3.214 0 01-3.204 3.204h-5.29A3.214 3.214 0 01.5 8.993v-5.29A3.214 3.214 0 013.703.5z"/>
  <mask id="a" fill="#fff">
    <path d="M9.787 3.703a.794.794 0 110-1.587.794.794 0 010 1.587zm-3.439.529a2.116 2.116 0 110 4.232 2.116 2.116 0 010-4.232zm0-1.058a3.174 3.174 0 100 6.348 3.174 3.174 0 000-6.348z"/>
  </mask>
  <path fill="#04D98B" d="M9.787 3.703l.01-5h-.01v5zm.794-.793h-5v.01l5-.01zM6.348 4.232v-5h-.005l.005 5zM4.232 6.348l-5-.005v.005h5zm2.116-3.174v5-5zm3.439-4.47c.832 0 1.645.246 2.337.708L6.568 7.727a5.794 5.794 0 003.219.976v-10zm2.337.708a4.206 4.206 0 011.55 1.888l-9.24 3.827a5.794 5.794 0 002.134 2.6l5.556-8.315zm1.55 1.888c.318.769.401 1.614.239 2.43L4.105 1.78a5.794 5.794 0 00.33 3.347L13.672 1.3zm.239 2.43a4.206 4.206 0 01-1.152 2.154l-7.07-7.071a5.794 5.794 0 00-1.586 2.966l9.808 1.951zM12.76 5.884a4.206 4.206 0 01-2.153 1.151L8.657-2.773A5.794 5.794 0 005.69-1.187l7.071 7.071zm-2.153 1.151a4.207 4.207 0 01-2.43-.24l3.826-9.238a5.793 5.793 0 00-3.347-.33l1.95 9.808zm-2.43-.24a4.206 4.206 0 01-1.889-1.548L14.604-.31a5.793 5.793 0 00-2.6-2.134L8.177 6.796zM6.288 5.248a4.206 4.206 0 01-.708-2.337h10c0-1.146-.34-2.266-.977-3.22L6.29 5.248zM5.581 2.92a4.208 4.208 0 01.318-1.615l9.243 3.817c.291-.705.44-1.46.439-2.223l-10 .021zm.318-1.615c.212-.512.522-.977.914-1.37l7.071 7.072c.54-.54.967-1.18 1.258-1.885L5.9 1.305zm.914-1.37a4.208 4.208 0 011.37-.913l3.816 9.243a5.791 5.791 0 001.885-1.258L6.814-.064zm1.37-.913a4.208 4.208 0 011.615-.319l-.022 10A5.791 5.791 0 0012 8.265L8.183-.978zM6.348 9.232c-.57 0-1.127-.17-1.602-.486L10.302.431A7.116 7.116 0 006.348-.768v10zm-1.602-.486a2.884 2.884 0 01-1.062-1.294l9.239-3.827A7.116 7.116 0 0010.302.431L4.746 8.746zM3.684 7.452a2.884 2.884 0 01-.164-1.666l9.808 1.95a7.116 7.116 0 00-.405-4.111L3.684 7.452zM3.52 5.786c.111-.56.386-1.074.79-1.477l7.07 7.071a7.116 7.116 0 001.948-3.644L3.52 5.787zm.79-1.477a2.884 2.884 0 011.476-.79l1.95 9.809a7.117 7.117 0 003.644-1.948L4.31 4.31zm1.476-.79a2.884 2.884 0 011.666.165l-3.827 9.239c1.3.538 2.731.68 4.112.405L5.786 3.52zm1.666.165c.527.218.977.588 1.294 1.062L.432 10.302a7.116 7.116 0 003.193 2.62l3.827-9.238zm1.294 1.062c.317.474.486 1.032.486 1.602h-10c0 1.408.418 2.783 1.2 3.954l8.314-5.556zm.486 1.608c0 .763-.304 1.494-.844 2.034l-7.07-7.071A7.118 7.118 0 00-.769 6.343l10 .01zm-.844 2.034c-.54.54-1.271.843-2.034.844l-.01-10a7.118 7.118 0 00-5.027 2.085l7.071 7.071zM6.348-1.826c-1.616 0-3.197.48-4.54 1.378l5.555 8.314c-.3.201-.653.308-1.015.308v-10zM1.808-.448A8.174 8.174 0 00-1.204 3.22l9.238 3.827a1.826 1.826 0 01-.672.82L1.807-.449zM-1.204 3.22a8.174 8.174 0 00-.466 4.723L8.14 5.992c.07.354.035.721-.104 1.055L-1.203 3.22zm-.466 4.723a8.174 8.174 0 002.237 4.185l7.072-7.07c.255.254.429.58.5.934l-9.809 1.95zm2.237 4.185a8.174 8.174 0 004.186 2.237l1.95-9.808c.355.07.68.245.936.5L.568 12.128zm4.186 2.237a8.174 8.174 0 004.723-.465L5.65 4.661c.333-.138.7-.174 1.055-.104l-1.951 9.808zm4.723-.465a8.174 8.174 0 003.668-3.01L4.83 5.333c.2-.3.486-.534.82-.673l3.827 9.24zm3.668-3.01a8.174 8.174 0 001.378-4.542h-10c0-.36.107-.714.307-1.014l8.315 5.556zm1.378-4.542a8.174 8.174 0 00-2.394-5.78L5.057 7.64a1.826 1.826 0 01-.534-1.29h10zM12.129.568a8.174 8.174 0 00-5.78-2.394v10c-.485 0-.95-.192-1.292-.535L12.13.57z" mask="url(#a)"/>
</svg>
