<svg xmlns="http://www.w3.org/2000/svg" width="10" height="20" fill="none" viewBox="0 0 10 20">
  <path stroke="#04D98B" stroke-width=".5" d="M5.385 10.071c0 .175-.132.295-.268.295-.135 0-.267-.12-.267-.295s.132-.295.267-.295c.136 0 .268.12.268.295zM5.385 11.966c0 .175-.132.295-.268.295-.135 0-.267-.12-.267-.295s.132-.295.267-.295c.136 0 .268.12.268.295zM5.385 13.86c0 .176-.132.295-.268.295-.135 0-.267-.12-.267-.294 0-.176.132-.295.267-.295.136 0 .268.12.268.294z"/>
  <rect width="8.1" height="14.21" x="1" y="4.789" stroke="#04D98B" rx="1"/>
  <path stroke="#04D98B" d="M3.7 1h2.7v3.789H3.7z"/>
</svg>
