<svg xmlns="http://www.w3.org/2000/svg" width="13" height="14" fill="none" viewBox="0 0 13 14">
  <path fill="#804EE0" fill-rule="evenodd" d="M6.5 1.5a5.5 5.5 0 100 11 5.5 5.5 0 000-11zM0 7a6.5 6.5 0 1113 0A6.5 6.5 0 010 7z M6.914 8.077c.757 0 1.345-.143 1.763-.43.064-.044.123-.091.18-.142.428-.388.643-.874.643-1.456 0-.603-.222-1.095-.665-1.477C8.398 4.191 7.758 4 6.915 4H4.5v7h.976V8.077h1.438zm-1.438-.753h1.438c.544 0 .944-.11 1.202-.331.053-.046.1-.095.143-.149.162-.206.243-.471.243-.795 0-.336-.08-.606-.24-.811a.787.787 0 00-.004-.006c-.252-.32-.7-.479-1.344-.479H5.476v2.571z" clip-rule="evenodd"/>
</svg>
