<svg xmlns="http://www.w3.org/2000/svg" fill="none" viewBox="0 0 16 16">
  <path d="M2.605 5.297v-.5.5zm0 .5h.19v-1h-.19v1zm.19 0c.454 0 .829.374.829.83h1c0-1.008-.822-1.83-1.83-1.83v1zm.829.83v6.645h1V6.626h-1zm0 6.645c0 .454-.375.829-.83.829v1c1.008 0 1.83-.822 1.83-1.83h-1zm-.83.829h-.19v1h.19v-1zm-.19 0a.833.833 0 01-.828-.83h-1c0 1.008.822 1.83 1.829 1.83v-1zm-.828-.83V6.627h-1v6.646h1zm0-6.645c0-.455.374-.829.829-.829v-1c-1.007 0-1.83.822-1.83 1.83h1zM7.92 1.81c.455 0 .83.374.83.829h1c0-1.007-.823-1.83-1.83-1.83v1zm.83.829v10.633h1V2.639h-1zm0 10.633c0 .455-.375.829-.83.829v1c1.007 0 1.83-.822 1.83-1.83h-1zm-.83.829a.833.833 0 01-.829-.83h-1c0 1.008.822 1.83 1.83 1.83v-1zm-.829-.83V2.64h-1v10.633h1zm0-10.632c0-.455.374-.83.83-.83v-1c-1.008 0-1.83.823-1.83 1.83h1zm6.146 6.766c.454 0 .829.374.829.829h1c0-1.007-.822-1.83-1.83-1.83v1zm.829.829v3.038h1v-3.038h-1zm0 3.038c0 .454-.375.829-.83.829v1c1.008 0 1.83-.822 1.83-1.83h-1zm-.83.829a.833.833 0 01-.829-.83h-1c0 1.008.822 1.83 1.83 1.83v-1zm-.829-.83v-3.037h-1v3.038h1zm0-3.037c0-.455.375-.83.83-.83v-1c-1.008 0-1.83.823-1.83 1.83h1z"/>
</svg>
