<svg xmlns="http://www.w3.org/2000/svg" width="13" height="18" fill="none" viewBox="0 0 13 18">
  <path fill="#04D98B" d="M10.983 8.343v-.5.5zm1.194-6.938a.5.5 0 00-1 0h1zM1.28 7.843a.5.5 0 100 1v-1zm0 2.582v-.5a.5.5 0 00-.498.534l.499-.034zm3.458 4.552h.5a.5.5 0 00-.334-.47l-.166.47zm0 2.386h-.5a.5.5 0 00.5.5v-.5zm6.938 0v.5a.5.5 0 00.5-.5h-.5zm0-6.938h.5a.5.5 0 00-.5-.5v.5zm-.694-1.582c.66 0 1.194-.533 1.194-1.193h-1a.192.192 0 01-.194.193v1zm1.194-1.193V1.405h-1V7.65h1zm-1.194.193H1.281v1h9.702v-1zM.783 10.46a5.704 5.704 0 003.789 4.99l.333-.943a4.704 4.704 0 01-3.125-4.115l-.997.068zm3.456 4.518v2.386h1v-2.386h-1zm.5 2.886h6.938v-1H4.739v1zm7.438-.5v-6.938h-1v6.938h1zm-.5-7.438h-.017v1h.017v-1zm-.017 0H4.739v1h6.92v-1zm-6.921 0H1.282v1h3.457v-1z"/>
</svg>
