<svg xmlns="http://www.w3.org/2000/svg" width="17" height="16" fill="none" viewBox="0 0 17 16">
  <path fill="#04D98B" d="M7.827 2.045l.03.5.47-.029v-.471h-.5zm.946 0h-.5v.471l.47.028.03-.499zm4.882 2.205l.357-.35-.003-.003-.354.353zm1.418 5.693l-.34.367.02.018.02.015.3-.4zM11 9.921l-.35-.357-.003.003.353.354zm-.652.022l-.354.354.012.011.012.011.33-.376zm-.968-.63l.178-.467-.178.467zm-2.307 4.995a.5.5 0 10-1 0h1zm1.3-5.175l.088-.492-.071-.013-.072.008.055.497zm-1.153.18l.186.464.008-.003.009-.004-.203-.457zm-.968.63l.33.376.005-.005.006-.005-.34-.366zM5.6 9.921l.353-.354-.007-.007-.346.36zm-4.073.022l-.34-.367.34.367zm1.44-5.693l.35.357.007-.006-.357-.35zm5.36-2.205V1.55h-1v.495h1zm0-.495a.035.035 0 01-.008.022.016.016 0 01-.006.003.035.035 0 01-.013.002v-1a.975.975 0 00-.973.973h1zm-.027.027c.005 0 .004.001 0 0a.047.047 0 01-.016-.011.047.047 0 01-.01-.015c-.002-.005-.001-.006-.001-.001h1A.961.961 0 008.3.577v1zm-.027-.027v.495h1V1.55h-1zm.47.994c1.763.105 3.36.86 4.559 2.06l.707-.707a8.015 8.015 0 00-5.207-2.351l-.06.998zm4.556 2.057a7.113 7.113 0 012.062 4.982h1c0-2.21-.913-4.224-2.35-5.683l-.712.7zm2.062 4.982c0 .005-.001.004 0 0a.047.047 0 01.011-.016.047.047 0 01.015-.01c.005-.002.006-.001.001-.001v1a.961.961 0 00.973-.973h-1zm.027-.027h.007a.077.077 0 01-.022-.013l-.6.8c.158.119.373.213.615.213v-1zm.024.02c-1.367-1.264-3.382-1.366-4.762-.012l.7.713c.96-.941 2.366-.908 3.384.033l.678-.734zm-4.765-.009a.033.033 0 01.01-.007.013.013 0 01.005-.001h.003c.002 0 .006.003.012.008l-.659.752a.984.984 0 001.336-.045l-.707-.707zm.054.022a2.989 2.989 0 00-1.143-.743l-.356.934a2 2 0 01.792.517l.707-.708zm-4.628 4.72c0 .77.629 1.4 1.4 1.4v-1a.403.403 0 01-.4-.4h-1zm1.4 1.4c.771 0 1.4-.63 1.4-1.4h-1c0 .218-.181.4-.4.4v1zm.9-1.4h.5v-.001-.001-.002-.002-.002-.002-.002-.001-.002-.001-.002-.001-.002-.002-.002-.001-.002-.002-.002-.002-.002-.003-.002-.003-.002-.002-.003-.003-.002-.003-.003-.003-.003-.003-.003-.003-.003-.003-.004-.003-.004-.003-.004-.004-.003-.004-.004-.004-.004-.004-.004-.004-.004-.004-.005-.004-.005-.004-.005-.004-.005-.005-.004-.005-.005-.005-.005-.005-.005-.005-.006-.005-.005-.006-.005-.006-.005-.006-.006-.005-.006-.006-.006-.006-.006-.006-.006-.006-.007-.006-.006-.007-.006-.007-.006-.007-.006-.007-.007-.007-.007-.007-.006-.007-.008-.007-.007-.007-.007-.008-.007-.007-.008-.007-.008-.007-.008-.008-.008-.007-.008-.008-.008-.008-.008-.008-.008-.008-.008-.009-.008-.008-.009-.008-.009-.008-.009-.008-.009-.009-.008-.01-.008-.009-.009-.009-.009-.009-.009-.009-.01-.008-.01-.009-.01-.009-.009-.01-.009-.01-.009-.01-.01-.009-.01-.01-.01-.009-.01-.01-.01-.01-.01-.01-.01-.01-.01-.01-.01-.01-.011-.01-.011-.01-.01-.011-.01-.011-.011-.01-.011-.01-.012-.01-.011-.011-.01-.012-.01V13v-.01-.012-.01-.012-.01-.012-.011-.011-.012-.01-.012-.011-.012-.011-.012-.011-.011-.012-.011-.012-.012-.011-.012-.012-.011-.012-.012-.012-.011-.012-.012-.012-.012-.012-.012-.011-.012-.013-.012-.012-.012-.012-.012-.012-.012-.013-.012-.012-.012-.013-.012-.012-.013-.012-.013-.012-.012-.013-.012-.013-.012-.013-.013-.012-.013-.012-.013-.013-.012-.013-.013-.013-.012-.013-.013-.013-.013-.012-.013-.013-.013-.013V12v-.013-.013-.013-.013-.013-.013-.013-.013-.013-.013-.013-.013-.013-.014-.013-.013-.013-.013-.014-.013-.013-.013-.014-.013-.013-.013-.014-.013-.013-.014-.013-.013-.014-.013-.013-.014-.013-.014-.013-.013-.014-.013-.014-.013-.013-.014-.014-.013-.013-.014-.013-.014-.013-.014-.013-.014-.014-.013-.014-.013-.014-.013-.014-.013-.014-.014-.013-.014-.013-.014-.013-.014-.014-.013-.014-.013-.014-.014-.013-.014-.013-.014-.014-.013-.014-.013-.014-.014-.013-.014-.013-.014-.013-.014-.014-.013-.014-.013-.014-.014-.013-.014-.013-.014-.013-.014-.013-.014-.014-.013-.014-.013-.014-.013-.014-.013-.014-.013-.013-.014-.013-.014-.013-.014-.013-.014-.013-.013-.014-.013-.014-.013-.013-.014-.013-.013-.014-.013-.013-.014-.013-.013-.013-.014-.013-.013-.013-.013V10v-.013-.013-.013-.013-.013-.013-.014-.013-.013-.013-.013-.013-.013-.013-.013-.013-.013-.013-.012-.013-.013-.013-.013-.013-.013-.012-.013-.013-.013-.012V9.6v-.013-.012-.013-.013-.012-.013-.012-.013-.012-.013-.012-.013-.012-.013-.012-.013-.012-.012-.013-.012-.012-.012-.013-.012-.012-.012-.012-.012-.012-.012-.012-.012-.012-.012-.012-.012-.012-.012h-1V14.308h.5zm-.055-5.673c-.09.01-.343.034-.586.066a6.606 6.606 0 00-.368.057c-.102.02-.238.049-.347.097l.406.914c-.008.003.026-.01.127-.029.088-.016.197-.033.311-.047.232-.03.454-.051.567-.064l-.11-.994zm-1.284.213a3.6 3.6 0 00-1.122.728l.68.732c.276-.256.54-.422.814-.532l-.372-.928zm-1.11.718a.039.039 0 01.011-.008h.008a.034.034 0 01.01.008l-.707.707a.984.984 0 001.336.045l-.659-.752zm.022-.007c-1.4-1.347-3.389-1.25-4.758.016l.678.734c1.016-.939 2.402-.977 3.387-.03l.693-.72zm-4.76.017c-.001.002 0 0 .008-.004a.079.079 0 01.024-.007.052.052 0 01.027.003h-.002a.017.017 0 01-.002-.004l-.002-.004h-1c0 .403.236.736.546.896a.936.936 0 001.082-.148l-.68-.732zm.053-.016c0-1.931.798-3.694 2.079-4.954l-.702-.713A7.946 7.946 0 00.24 9.56h1zM3.324 4.6a6.91 6.91 0 014.533-2.057l-.06-.998A7.91 7.91 0 002.61 3.9l.714.7zm6.234 4.245a2.447 2.447 0 00-.615-.147c-.19-.022-.304-.026-.482-.058l-.176.984c.215.039.418.053.54.067.132.016.241.036.377.088l.356-.934z"/>
</svg>
