<svg xmlns="http://www.w3.org/2000/svg" width="12" height="17" fill="none" viewBox="0 0 12 17">
  <path stroke="#04D98B" d="M9.331 5.031l.008-.001.007-.002c.403-.093.822-.024 1.058.104.278.168.419.354.588.692.126.27.244.732.32 1.258.075.52.1 1.046.067 1.428-.057.453-.22 1.348-.467 2.209a8.453 8.453 0 01-.422 1.18c-.128.278-.25.469-.352.582a2.774 2.774 0 01-.145-.048h0l-.128-.044-.022-.007-.022-.005-2.008-.473a1.214 1.214 0 01-.035-.01 3.598 3.598 0 01-.015-.035l-.006-.014-.024-.057c-.25-.87-.326-1.793-.327-2.86a7.026 7.026 0 01.345-1.846c.21-.641.494-1.204.819-1.565.08-.079.209-.191.357-.29.159-.108.302-.175.404-.196zM1.227 7.34h0l-.002-.005C.925 6.473.774 5.722.62 4.679c-.033-.376.001-.897.08-1.413.082-.523.201-.985.313-1.243.148-.324.31-.493.591-.682.105-.055.276-.106.48-.13a1.54 1.54 0 01.55.025l.02.006.022.004c.276.05.576.27.793.484.321.358.596.917.796 1.563.198.641.309 1.323.328 1.887 0 1.074-.078 1.963-.332 2.84a1.024 1.024 0 01-.037.095c-.031.01-.087.025-.195.048l-.093.02c-.112.023-.253.052-.418.092h0l-.006.001-.294.074c-.363.093-.688.175-1.015.235l-.035.006-.034.011a.795.795 0 01-.197.054h-.08l-.012.003a3.874 3.874 0 01-.15-.234h0l-.004-.008c-.164-.261-.346-.726-.463-1.076zM7.242 14.098l.008-.016.006-.018c.062-.165.162-.368.258-.536l2.004.601c-.056.38-.154.792-.301 1.164-.205.52-.472.878-.767 1.032h0l-.012.006c-.482.268-.918.133-1.188-.234-.285-.386-.422-1.102-.008-1.999zM3.566 12.548c-.334-.196-.593-.56-.783-1.057a5.76 5.76 0 01-.295-1.174c.27-.077.606-.18.931-.28a186.667 186.667 0 00.982-.305l.098-.03c.086.148.18.34.267.556.148.371.245.738.26.978.033.604-.182 1.048-.452 1.273-.246.205-.59.275-1.008.04z"/>
</svg>
