<svg xmlns="http://www.w3.org/2000/svg" width="17" height="13" fill="none" viewBox="0 0 17 13">
  <path d="M15.904 3.429c0-1.29-.97-2.326-2.169-2.326A108.985 108.985 0 008.765 1h-.528c-1.687 0-3.346.029-4.969.103-1.195 0-2.165 1.043-2.165 2.332A41.662 41.662 0 001 6.494c-.003 1.02.03 2.04.1 3.062 0 1.289.97 2.335 2.165 2.335 1.705.077 3.455.111 5.233.108 1.782.006 3.526-.03 5.233-.108 1.199 0 2.168-1.046 2.168-2.335.07-1.023.103-2.042.1-3.065.007-1.02-.025-2.04-.095-3.062zM7.065 9.304V3.675l4.249 2.813-4.249 2.816z"/>
</svg>
