<svg xmlns="http://www.w3.org/2000/svg" width="12" height="40" fill="none" viewBox="0 0 6 20">
  <path fill="#fff" stroke="#23CAFF" d="M1.003 2.248c0 .398.256 2.287.384 3.182.204 1.492 1.537.895 2.05.597.41-.239.597-.829.64-1.094.128-.497.41-1.65.512-2.287.128-.796-.896-1.293-2.305-1.591C.875.756 1.003 1.75 1.003 2.248zM1.003 17.752c0-.398.256-2.287.384-3.182.204-1.492 1.537-.895 2.05-.597.41.239.597.829.64 1.094.128.497.41 1.65.512 2.287.128.796-.896 1.293-2.305 1.591-1.409.299-1.281-.696-1.281-1.193z"/>
  <path stroke="#23CAFF" stroke-width=".45" d="M2.575 6.625h.45v6.75h-.45z"/>
</svg>
