<svg xmlns="http://www.w3.org/2000/svg" fill="none" viewBox="0 0 13 16">
  <path d="M8.013 14.923c1.054 0 1.903-.776 1.903-1.735.06-1.298.084-2.623.084-3.976V8.79a85 85 0 0 0-.084-3.976c0-.956-.853-1.732-1.908-1.732A34.864 34.864 0 0 0 5.505 3 36.15 36.15 0 0 0 3 3.08c-1.055 0-1.91.776-1.91 1.732A87.428 87.428 0 0 0 1 9c-.004 1.425.025 2.82.09 4.186 0 .959.855 1.735 1.91 1.735.836.056 1.67.082 2.507.08.835.005 1.67-.02 2.506-.077Z"/>
  <path d="M11.916 11.188c.06-1.298.084-2.623.084-3.976V6.79c0-1.35-.023-2.677-.084-3.976 0-.956-.853-1.732-1.908-1.732A34.86 34.86 0 0 0 7.505 1 36.15 36.15 0 0 0 5 1.08"/>
</svg>
