<svg xmlns="http://www.w3.org/2000/svg" viewBox="0 0 14 14">
  <path fill="rgba(0,0,0,0)" d="M12.542 1h-11l4.5 6.5V13l2-1.5v-4l4.5-6.5z"/>
  <mask id="filterm" fill="#fff">
    <path fill-rule="evenodd" d="M3.542 4l2.423 3.5V13l2-1.5v-4L10.388 4H3.542z" clip-rule="evenodd"/>
  </mask>
  <path stroke="none" d="M3.542 4V2H-.276l2.173 3.138L3.542 4zm2.423 3.5h2v-.625l-.356-.513L5.965 7.5zm0 5.5h-2v4l3.2-2.4-1.2-1.6zm2-1.5l1.2 1.6.8-.6v-1h-2zm0-4L6.32 6.362l-.355.513V7.5h2zM10.388 4l1.644 1.138L14.205 2h-3.817v2zm-8.49 1.138l2.422 3.5L7.61 6.362l-2.423-3.5-3.289 2.276zM3.964 7.5V13h4V7.5h-4zm3.2 7.1l2-1.5-2.4-3.2-2 1.5 2.4 3.2zm2.8-3.1v-4h-4v4h4zm-.356-2.862l2.423-3.5-3.289-2.276-2.423 3.5L9.61 8.638zM10.388 2H3.542v4h6.846V2z" mask="url(#filterm)"/>
</svg>
