<svg xmlns="http://www.w3.org/2000/svg" fill="none" viewBox="0 0 11 14">
  <path d="M7.433 1.697a20.711 20.711 0 012.006-.39c.119 1.162.197 2.665.197 3.596.001 1.355-.134 2.48-.435 3.418-.291.909-.739 1.642-1.37 2.24-.512.484-1.145.878-1.913 1.203-.59.249-1.258.457-2.014.634-.575.135-1.7.251-2.378.354-.129-1.293-.177-2.448-.137-3.48.044-1.111.19-2.079.45-2.922.276-.888.677-1.637 1.22-2.268.514-.6 1.156-1.094 1.937-1.498.698-.363 1.508-.654 2.437-.887z"/>
  <path d="M9.636 4.903c0-.93-.078-2.434-.197-3.596C2.78 2.29.77 5.137 1.526 12.752c.678-.103 1.803-.22 2.378-.354m5.732-7.495L7.433 1.697m2.203 3.206c.001 1.355-.134 2.48-.435 3.418m0 0L4.996 2.584M9.2 8.32c-.291.909-.739 1.642-1.37 2.24m0 0L3.058 4.08m4.773 6.48c-.512.484-1.145.878-1.913 1.203m0 0L1.84 6.35m4.078 5.414c-.59.249-1.258.457-2.014.634m0 0L1.39 9.272"/>
</svg>
