<svg xmlns="http://www.w3.org/2000/svg" fill="none" viewBox="0 0 5 8">
  <path fill-rule="evenodd" d="M2.42.432c.68 0 1.226.187 1.637.56.41.375.615.885.615 1.533 0 .674-.213 1.182-.64 1.522-.428.34-.995.51-1.703.51l-.04.792h-.991l-.05-1.572h.33c.648 0 1.143-.087 1.487-.26.344-.174.516-.505.516-.992 0-.354-.102-.63-.306-.831-.203-.2-.485-.3-.846-.3-.36 0-.644.096-.85.29-.208.193-.311.464-.311.811H.196c0-.4.09-.758.27-1.071.18-.314.44-.558.777-.731.337-.174.729-.26 1.176-.26zm-.641 7.13a.707.707 0 01-.52-.21.707.707 0 01-.211-.522c0-.207.07-.38.21-.52.14-.14.314-.21.52-.21.201 0 .371.07.512.21.14.14.21.313.21.52 0 .207-.07.38-.21.521-.14.14-.31.21-.511.21z" clip-rule="evenodd"/>
</svg>
