<svg xmlns="http://www.w3.org/2000/svg" fill="none" viewBox="0 0 12 18">
  <path d="M1.008 4.698c0 1.179.683 6.777 1.025 9.43.542 4.419 4.098 2.651 5.464 1.767 1.093-.707 1.594-2.455 1.708-3.241.342-1.473 1.093-4.891 1.366-6.777.342-2.357-2.39-3.83-6.148-4.715C.667.278 1.008 3.225 1.008 4.698z"/>
  <path d="M2.925 5.768c0 .907.41 5.218.615 7.26.325 3.403 2.459 2.042 3.278 1.361.656-.544.957-1.89 1.025-2.495.205-1.135.656-3.767.82-5.219.205-1.815-1.435-2.95-3.689-3.63-2.254-.68-2.05 1.588-2.05 2.723z"/>
  <mask id="hookm" fill="#fff">
    <rect width="3.117" height="4.699" x="8.053" y="6.301" rx=".3" transform="rotate(10.082 8.053 6.301)"/>
  </mask>
  <rect width="3.117" height="4.699" x="8.053" y="6.301" stroke-width="3.117" mask="url(#hookm)" rx=".3" transform="rotate(10.082 8.053 6.301)"/>
</svg>
