<svg xmlns="http://www.w3.org/2000/svg" fill="none" viewBox="0 0 17 22">
  <rect width="6.88" height="1.72" x="6.703" y="6.641" rx=".86" transform="rotate(30 6.703 6.641)"/>
  <rect width="6.88" height="1.72" x="5.843" y="8.131" rx=".86" transform="rotate(30 5.843 8.13)"/>
  <rect width="6.88" height="1.72" x="4.983" y="9.62" rx=".86" transform="rotate(30 4.983 9.62)"/>
  <mask id="ropem" fill="#fff">
    <path fill-rule="evenodd" d="M8.856 3.912a2.94 2.94 0 115.092 2.94c-.418.724-1.262 1.493-2.202 1.965-.257.128-.509.23-.752.302l1.105.638.095-.046c1.083-.543 2.088-1.437 2.62-2.359a3.94 3.94 0 10-6.824-3.94c-.532.922-.804 2.24-.732 3.449l.007.105 1.105.638a4.643 4.643 0 01-.114-.802c-.062-1.05.182-2.166.6-2.89zm1.763 4.99L8.745 7.82a3.3 3.3 0 01-.094-.992c.032-.744.258-1.567.602-2.164.68-1.178 2.108-1.869 3.26-1.204 1.15.664 1.266 2.246.585 3.424-.344.597-.944 1.204-1.572 1.603a3.3 3.3 0 01-.907.415zm-.5-3.738c.52-.9 1.398-1.124 1.893-.838.495.285.74 1.158.22 2.058-.255.443-.735.937-1.243 1.26-.252.16-.488.263-.683.305-.196.042-.31.016-.374-.02-.063-.037-.143-.123-.205-.314a2.195 2.195 0 01-.077-.744c.026-.601.214-1.264.47-1.707z" clip-rule="evenodd"/>
  </mask>
  <path fill-rule="evenodd" d="M8.856 3.912a2.94 2.94 0 115.092 2.94c-.418.724-1.262 1.493-2.202 1.965-.257.128-.509.23-.752.302l1.105.638.095-.046c1.083-.543 2.088-1.437 2.62-2.359a3.94 3.94 0 10-6.824-3.94c-.532.922-.804 2.24-.732 3.449l.007.105 1.105.638a4.643 4.643 0 01-.114-.802c-.062-1.05.182-2.166.6-2.89zm1.763 4.99L8.745 7.82a3.3 3.3 0 01-.094-.992c.032-.744.258-1.567.602-2.164.68-1.178 2.108-1.869 3.26-1.204 1.15.664 1.266 2.246.585 3.424-.344.597-.944 1.204-1.572 1.603a3.3 3.3 0 01-.907.415zm-.5-3.738c.52-.9 1.398-1.124 1.893-.838.495.285.74 1.158.22 2.058-.255.443-.735.937-1.243 1.26-.252.16-.488.263-.683.305-.196.042-.31.016-.374-.02-.063-.037-.143-.123-.205-.314a2.195 2.195 0 01-.077-.744c.026-.601.214-1.264.47-1.707z" clip-rule="evenodd"/>
  <path d="M11.746 8.817l-.448-.894.448.894zm-.752.302l-.285-.959-2.227.663 2.012 1.162.5-.866zm1.105.638l-.5.866.457.264.476-.229-.433-.901zm.095-.046l-.448-.894.448.893zM7.258 6.86l.998-.06-.998.06zm.007.105l-.997.075.04.527.457.264.5-.866zm1.105.638l-.5.866L9.882 9.63l-.539-2.26-.973.233zm-.114-.802l.998-.06-.998.06zm.49 1.018l-.966.262.108.398.357.207.5-.867zm1.873 1.082l-.5.866.357.206.399-.105-.256-.967zM8.65 6.828l-.999-.043 1 .043zm2.875 1.66l-.537-.844.537.843zm-.537-.844l.537.843-.537-.843zm-.683.305l-.211-.977.21.977zm-.579-.334l.952-.306-.952.306zm-.077-.744l-.999-.043 1 .043zm3.722-4.901A3.94 3.94 0 007.99 3.412l1.732 1a1.94 1.94 0 012.65-.71l1-1.732zm1.442 5.382a3.94 3.94 0 00-1.442-5.382l-1 1.732a1.94 1.94 0 01.71 2.65l1.732 1zm-2.62 2.358c1.083-.543 2.088-1.436 2.62-2.358l-1.732-1c-.303.526-.987 1.17-1.784 1.57l.896 1.788zm-.915.367c.306-.09.612-.215.915-.367l-.896-1.787c-.21.105-.408.183-.59.237l.571 1.917zm-.785-.092l1.105.638 1-1.732-1.105-.638-1 1.732zm1.252-1.168a5.485 5.485 0 01-.08.038l.866 1.803.11-.053-.896-1.788zm2.202-1.965c-.418.724-1.262 1.493-2.202 1.965l.896 1.787c1.226-.614 2.392-1.632 3.038-2.752l-1.732-1zm-1.076-4.016a2.94 2.94 0 011.076 4.016l1.732 1a4.94 4.94 0 00-1.808-6.748l-1 1.732zM8.856 3.912a2.94 2.94 0 014.016-1.076l1-1.732a4.94 4.94 0 00-6.748 1.808l1.732 1zm-.6 2.89c-.062-1.05.182-2.166.6-2.89l-1.732-1c-.646 1.12-.945 2.639-.865 4.007l1.997-.117zm.006.088a5.2 5.2 0 01-.006-.088l-1.997.117.009.122 1.994-.151zm-1.497.942l1.105.638 1-1.732L7.765 6.1l-1 1.732zm.493-.971c.02.338.066.665.14.975l1.945-.464a3.647 3.647 0 01-.089-.63l-1.996.119zm.732-3.449c-.532.922-.804 2.239-.732 3.449l1.996-.118c-.052-.89.164-1.805.468-2.33l-1.732-1zm.255 5.275l1.874 1.081 1-1.732-1.874-1.082-1 1.733zm1.466-1.128a2.314 2.314 0 01-.06-.688l-1.999-.086c-.017.407.01.859.128 1.297l1.93-.523zm-.06-.688c.025-.601.213-1.265.468-1.707l-1.732-1c-.433.751-.697 1.734-.735 2.621l1.998.086zm.468-1.707c.527-.912 1.408-1.119 1.893-.838l1-1.732c-1.816-1.049-3.79.125-4.625 1.57l1.732 1zm1.893-.838c.485.28.747 1.146.22 2.058l1.732 1c.835-1.445.864-3.742-.952-4.79l-1 1.732zm.22 2.058c-.255.442-.735.937-1.243 1.26l1.073 1.687c.749-.476 1.469-1.196 1.902-1.947l-1.732-1zm-1.243 1.26c-.226.143-.44.242-.626.291l.512 1.934a4.293 4.293 0 001.187-.538L10.99 7.644zm1.523-4.184c-1.134-.655-2.567.005-3.259 1.204l1.732 1c.155-.268.333-.386.448-.43.133-.05.15-.001.08-.042l1-1.732zm.586 3.424c.693-1.199.548-2.77-.586-3.424l-1 1.732c-.07-.041-.02-.051.003.09.02.121.006.334-.149.602l1.732 1zm-1.572 1.603c.628-.4 1.228-1.006 1.572-1.603l-1.732-1c-.166.288-.527.67-.914.916l1.074 1.687zm-1.01.44a3.177 3.177 0 001.01-.44L10.452 6.8c-.188.12-.312.162-.357.172l.421 1.955zm-1.084-.133c.346.2.734.208 1.084.133l-.421-1.955c-.042.009.119-.036.337.09l-1 1.732zm-.657-.872c.11.34.312.673.657.872l1-1.732c.219.126.26.288.247.247l-1.904.613zm-.124-1.094c-.016.374.016.756.124 1.094l1.904-.613a1.268 1.268 0 01-.03-.395l-1.998-.086zm.602-2.164c-.344.597-.57 1.42-.602 2.164l1.998.086c.02-.459.17-.962.336-1.25l-1.732-1z" mask="url(#ropem)"/>
  <g>
    <mask id="ropem2" fill="#fff">
      <path fill-rule="evenodd" d="M7.928 17.28a2.94 2.94 0 11-5.092-2.94c.418-.725 1.262-1.494 2.202-1.965.257-.129.509-.23.752-.302l-1.105-.639-.095.047c-1.083.543-2.088 1.437-2.62 2.358a3.94 3.94 0 106.824 3.94c.532-.921.804-2.239.733-3.448a6.215 6.215 0 00-.007-.105l-1.106-.639c.059.247.097.516.114.803.062 1.05-.182 2.165-.6 2.89zm-1.763-4.99l1.874 1.08a3.3 3.3 0 01.094.993c-.032.744-.257 1.567-.602 2.164-.68 1.179-2.108 1.869-3.259 1.205-1.15-.665-1.267-2.246-.586-3.425.344-.597.944-1.204 1.573-1.603.285-.181.594-.332.906-.415zm.5 3.737c-.52.9-1.398 1.124-1.893.839-.494-.286-.74-1.16-.22-2.059.255-.442.736-.936 1.243-1.26.252-.16.488-.263.684-.305.196-.042.31-.016.373.021.064.037.144.122.205.313.061.19.09.446.077.744-.026.602-.214 1.265-.469 1.707z" clip-rule="evenodd"/>
    </mask>
    <path d="M5.038 12.375l.449.894-.449-.894zm.752-.302l.286.958 2.226-.663-2.012-1.161-.5.866zm-1.105-.639l.5-.866-.457-.264-.476.229.433.901zm-.095.047l.448.894-.448-.894zm4.937 2.85l-.999.059.999-.06zm-.007-.105l.997-.076-.04-.527-.457-.263-.5.866zm-1.106-.639l.5-.866-2.012-1.161.54 2.26.972-.233zm.114.803l-.998.058.998-.058zm-.49-1.02l.966-.26-.108-.399-.357-.206-.5.866zm-1.873-1.08l.5-.867-.357-.206-.398.105.255.967zm1.968 2.073l1 .043-1-.043zm-2.874-1.66l.536.845-.536-.844zm.536.845l-.536-.844.536.844zm.684-.306l.21.978-.21-.978zm.578.334l-.952.306.952-.306zm.077.744l1 .043-1-.043zm-3.722 4.901a3.94 3.94 0 005.382-1.442l-1.732-1a1.94 1.94 0 01-2.65.71l-1 1.732zM1.97 13.84a3.94 3.94 0 001.442 5.382l1-1.732a1.94 1.94 0 01-.71-2.65l-1.732-1zm2.62-2.358c-1.083.543-2.088 1.437-2.62 2.358l1.732 1c.304-.526.987-1.17 1.785-1.57L4.59 11.48zm.915-.367c-.305.091-.612.215-.915.367l.897 1.788c.21-.106.407-.184.589-.238l-.571-1.917zm.785.093l-1.105-.639-1 1.732 1.105.639 1-1.732zm-1.252 1.168l.08-.04-.866-1.802a7.318 7.318 0 00-.11.054l.896 1.788zm-2.202 1.964c.418-.724 1.262-1.493 2.202-1.964l-.896-1.788c-1.226.614-2.392 1.633-3.038 2.752l1.732 1zm1.076 4.016a2.94 2.94 0 01-1.076-4.016l-1.732-1a4.94 4.94 0 001.808 6.748l1-1.732zm4.016-1.076a2.94 2.94 0 01-4.016 1.076l-1 1.732A4.94 4.94 0 009.66 18.28l-1.732-1zm.6-2.89c.062 1.05-.182 2.166-.6 2.89l1.732 1c.647-1.12.946-2.638.865-4.007l-1.997.118zm-.006-.087c.003.029.005.058.006.088l1.997-.118a7.29 7.29 0 00-.008-.122l-1.995.152zm1.498-.942l-1.106-.639-1 1.732 1.106.639 1-1.732zm-.493.97a5.64 5.64 0 00-.14-.975l-1.946.464c.044.184.075.395.09.63l1.996-.118zm-.733 3.45c.532-.922.804-2.24.733-3.45l-1.997.118c.053.89-.164 1.805-.468 2.331l1.732 1zm-.255-5.275l-1.874-1.082-1 1.732 1.874 1.082 1-1.732zm-1.465 1.127c.05.186.072.421.06.688l1.998.086a4.293 4.293 0 00-.128-1.297l-1.93.523zm.06.688c-.026.602-.214 1.265-.469 1.707l1.732 1c.434-.751.697-1.734.735-2.62l-1.998-.087zm-.469 1.707c-.526.912-1.408 1.119-1.893.839l-1 1.732c1.816 1.048 3.79-.126 4.625-1.57l-1.732-1zm-1.893.839c-.485-.28-.747-1.147-.22-2.059l-1.732-1c-.834 1.445-.864 3.742.952 4.79l1-1.731zm-.22-2.059c.255-.442.736-.936 1.243-1.26L4.722 11.86c-.749.476-1.468 1.196-1.902 1.947l1.732 1zm1.243-1.26c.226-.143.44-.242.626-.291l-.511-1.934a4.292 4.292 0 00-1.188.538l1.073 1.688zm-1.523 4.185c1.134.655 2.567-.006 3.26-1.205l-1.733-1c-.155.268-.333.386-.448.43-.133.051-.15.002-.079.043l-1 1.732zm-.586-3.425c-.692 1.2-.548 2.77.586 3.425l1-1.732c.071.04.02.05-.003-.09-.019-.122-.006-.335.149-.603l-1.732-1zm1.573-1.603c-.629.4-1.229 1.006-1.573 1.603l1.732 1c.166-.288.527-.67.914-.916L5.26 12.704zm1.009-.44a3.18 3.18 0 00-1.01.44l1.074 1.687c.188-.12.313-.162.357-.171l-.421-1.956zm1.084.133c-.345-.2-.734-.208-1.084-.133l.421 1.956c.042-.01-.118.035-.337-.091l1-1.732zm.657.873c-.11-.341-.311-.674-.657-.873l-1 1.732c-.218-.126-.26-.287-.247-.247l1.904-.612zm.124 1.093a3.177 3.177 0 00-.124-1.093l-1.904.612c.014.044.04.173.03.396l1.998.085zm-.602 2.164c.345-.597.57-1.42.602-2.164l-1.998-.085c-.02.458-.17.961-.336 1.25l1.732 1z" mask="url(#ropem2)"/>
  </g>
</svg>
