<svg xmlns="http://www.w3.org/2000/svg" fill="none" viewBox="0 0 14 17">
  <mask id="user-1" fill="#fff" style='display:inline'>
    <path d="M6.943 8.867h.107a3.143 3.143 0 002.404-1.04c1.312-1.48 1.093-4.015 1.07-4.257C10.437 1.755 9.579.886 8.872.48A3.793 3.793 0 007.046 0h-.057a3.805 3.805 0 00-1.826.457C4.446.863 3.565 1.732 3.49 3.56c-.025.241-.242 2.777 1.068 4.256a3.134 3.134 0 002.401 1.04l-.016.01zm-2.56-5.21v-.028C4.493 1.185 6.228.922 6.97.922h.041c.913.02 2.486.397 2.59 2.707a.053.053 0 000 .027c0 .023.243 2.342-.841 3.56a2.234 2.234 0 01-1.755.731H6.97a2.232 2.232 0 01-1.752-.73c-1.08-1.212-.847-3.54-.845-3.56h.01z"/>
  </mask>
  <mask id="user-2" fill="#fff" style='display:inline'>
    <path d="M14 13.071v-.087c-.02-.684-.064-2.25-1.543-2.754l-.034-.012a9.907 9.907 0 01-2.837-1.296.464.464 0 10-.525.764 10.653 10.653 0 003.11 1.42c.795.283.884 1.141.914 1.908v.087c.005.348-.02.696-.076 1.04-.552.313-2.716 1.397-6.009 1.397S1.545 14.452.99 14.14a5.844 5.844 0 01-.077-1.054V13c.023-.776.112-1.625.913-1.908a10.657 10.657 0 003.11-1.422.46.46 0 00-.526-.753 9.694 9.694 0 01-2.83 1.29h-.035C.071 10.725.027 12.302 0 12.973v.084c0 .176 0 1.087.173 1.543.034.09.095.165.176.215.103.068 2.554 1.63 6.653 1.63 4.1 0 6.55-1.564 6.651-1.63a.442.442 0 00.178-.215c.171-.456.167-1.37.164-1.54l.005.011z"/>
  </mask>
  <path d="M6.943 8.867l-.496-.868-3.27 1.868h3.766v-1zm.107 0l.021-1h-.02v1zm2.404-1.04l.743.668.005-.005-.748-.664zm1.07-4.257l-.999.047.001.024.002.023.996-.094zM8.872.48l.498-.868-.012-.006-.486.873zM7.046 0l.005-1h-.005v1zm-.057 0l-.005 1h.005V0zM5.163.457l-.475-.88-.01.004-.008.006.493.87zM3.49 3.56l.994.103.004-.031v-.031L3.49 3.56zm1.068 4.256l-.749.663.004.005.745-.668zm2.401 1.04l.496.87-.518-1.869.022 1zm-2.577-5.2v1h1v-1h-1zm0-.028l-.999-.046v.046h1zM7.012.922l.022-1h-.023v1zm2.59 2.707l.965.26.041-.15-.007-.155-1 .045zm0 .027h1v-.132l-.035-.128-.965.26zm-.842 3.56l.74.673.007-.008-.747-.664zm-1.755.731l.045-.999h-.045v1zm-.035 0v-1h-.022l-.022.001.044 1zm-1.752-.73l-.747.665.006.007.74-.672zm-.845-3.56v-1h-.895l-.099.889.994.11zm2.57 6.21h.107v-2h-.107v2zm.086 0a4.143 4.143 0 001.734-.34L7.968 7.69a2.143 2.143 0 01-.897.176l-.042 2zm1.734-.34a4.143 4.143 0 001.434-1.032L8.71 7.158c-.206.229-.46.41-.742.533l.795 1.836zm1.439-1.037c.851-.96 1.163-2.2 1.28-3.132a9.04 9.04 0 00.038-1.882l-1.992.188c.009.087.063.7-.03 1.446-.097.767-.332 1.534-.792 2.053l1.496 1.327zm1.32-4.968C11.42 1.342 10.352.176 9.37-.388l-.996 1.735c.433.249 1.082.821 1.151 2.27l1.998-.095zM9.359-.394A4.793 4.793 0 007.051-1l-.01 2c.47.002.933.124 1.344.353l.973-1.747zM7.046-1h-.057v2h.057v-2zm-.052 0a4.805 4.805 0 00-2.306.576l.95 1.76A2.805 2.805 0 016.984 1l.01-2zM4.67-.413c-.986.558-2.088 1.725-2.18 3.932l1.999.083c.06-1.449.72-2.022 1.167-2.276L4.67-.414zm-2.175 3.87c-.017.165-.083.941.036 1.892.117.931.428 2.171 1.278 3.131l1.497-1.326c-.46-.519-.694-1.287-.79-2.053a6.944 6.944 0 01-.032-1.437l-1.989-.207zm1.318 5.028c.398.443.887.796 1.434 1.033l.795-1.835a2.134 2.134 0 01-.74-.534L3.813 8.485zm1.434 1.033a4.134 4.134 0 001.734.34l-.044-2a2.134 2.134 0 01-.895-.175l-.795 1.835zM6.463 7.99l-.016.009.992 1.736.016-.009-.992-1.736zm-2.08-4.334h1v-.001-.001-.001-.001-.001-.001-.001-.001-.001-.001-.001-.001-.001-.001-.001-.001-.001-.001-.001-.001-.001-.001-.001-.001-.001-.001-.001h-2V3.657h1zm.998.019c.044-.957.38-1.324.625-1.492.301-.207.685-.26.964-.26v-2c-.462 0-1.317.076-2.096.612-.836.574-1.423 1.561-1.49 3.048l1.997.092zm1.59-1.753h.04v-2h-.04v2zm.018 0c.356.008.74.087 1.025.299.24.177.548.547.589 1.453l1.998-.09c-.064-1.404-.595-2.377-1.396-2.97-.755-.56-1.614-.68-2.171-.692l-.045 2zm1.648 1.446c-.049.18-.049.37 0 .55l1.93-.522a.946.946 0 010 .494l-1.93-.522zm-.035.288c0 .151.06.556-.01 1.23-.068.674-.25 1.297-.58 1.666l1.495 1.33c.755-.85.994-1.995 1.075-2.792.081-.795.02-1.561.02-1.434h-2zm-.583 2.889c-.122.134-.272.24-.44.31L8.349 8.7c.439-.182.832-.46 1.152-.812L8.02 6.545zm-.44.31c-.167.07-.348.101-.53.093l-.09 1.998c.476.022.95-.062 1.389-.245L7.58 6.855zm-.574.092H6.97v2h.035v-2zm-.08.001a1.232 1.232 0 01-.528-.093L5.627 8.7c.44.183.913.266 1.388.245l-.09-1.998zm-.528-.093a1.232 1.232 0 01-.439-.31L4.477 7.89c.32.352.712.629 1.15.812l.77-1.846zm-.433-.303c-.326-.366-.51-.99-.58-1.665-.067-.643-.013-1.154-.017-1.12l-1.988-.221c-.006.055-.07.718.016 1.547.083.796.322 1.943 1.076 2.789l1.493-1.33zM4.373 4.656h.01v-2h-.01v2z" mask="url(#user-1)"/>
  <path d="M14 13.071l-.928.371 1.928-.37h-1zm0-.087h1v-.03l-1 .03zm-1.543-2.754l.323-.947-.007-.002-.316.949zm-.034-.012l.316-.949-.024-.008-.025-.006-.267.963zM9.586 8.922l-.566.824.006.004.006.005.554-.833zm-.525.764l-.566.825.01.007.556-.832zm3.11 1.42l.337-.942-.036-.013-.036-.01-.264.965zm.914 1.908h1v-.02l-.001-.019-1 .04zm0 .087h-1v.014l1-.014zm-.076 1.04l.493.87.419-.236.076-.475-.988-.159zM.991 14.14l-.987.164.078.472.417.235.492-.87zm-.078-1.054l1 .017v-.017h-1zm0-.085l-1-.029V13h1zm.913-1.908l-.264-.964-.035.01-.034.011.333.943zm3.11-1.422l.557.831.009-.005.008-.006-.573-.82zm-.526-.753l.555.832.009-.006.009-.007-.573-.819zm-2.83 1.29v1h.133l.13-.036-.264-.964zm-.035 0v-1h-.17l-.161.056.331.944zM0 12.973l-1-.04v.04h1zM.173 14.6l.938-.348-.003-.007-.935.355zm.176.215l.555-.832-.014-.01-.015-.009-.526.85zm13.304 0l-.53-.848-.01.006-.01.007.55.835zm.178-.215l.932.364.004-.013-.936-.35zm.164-1.54l.929-.372-1.928.385 1-.013zM15 13.07v-.001-.001-.001-.001-.001-.001-.001-.001-.001-.001-.001-.001-.001-.001-.001-.001-.001-.001-.001-.001-.001-.001-.001-.001-.001-.001-.001-.001-.001-.001-.001-.001-.001-.001-.001-.001-.001-.001-.001-.001-.001-.001-.001-.001-.001-.001-.001-.001-.001-.001-.001-.001-.001-.001-.001-.001-.001-.001-.001-.001-.001-.001-.001-.001-.001-.001-.001-.001-.001V13 13v-.001-.001-.001-.001-.001-.001-.001-.001-.001-.001-.001-.001-.001-.001-.001h-2V13.072h2zm0-.117c-.01-.331-.024-1.048-.286-1.76-.276-.753-.845-1.54-1.934-1.91l-.646 1.892c.39.133.583.381.703.708.135.368.153.777.163 1.13l2-.06zm-2.227-3.673l-.034-.012-.632 1.898.034.011.632-1.897zm-.083-.026a8.905 8.905 0 01-2.55-1.166L9.032 9.755c.96.637 2.014 1.119 3.124 1.427l.534-1.927zm-2.538-1.158a1.464 1.464 0 00-1.096-.232l.365 1.966a.536.536 0 01-.401-.085l1.132-1.649zm-1.096-.232c-.382.07-.72.29-.94.61l1.65 1.133a.536.536 0 01-.345.223l-.365-1.966zm-.94.61c-.219.32-.303.715-.232 1.097l1.967-.366a.536.536 0 01-.085.402l-1.65-1.132zm-.232 1.097c.071.381.29.72.611.939l1.132-1.649c.117.08.198.204.224.344l-1.967.366zm.621.946a11.651 11.651 0 003.403 1.553l.528-1.93a9.651 9.651 0 01-2.82-1.286l-1.11 1.663zm3.331 1.53a.153.153 0 01.07.041c.013.015.04.05.069.13.066.184.096.449.11.834l1.999-.078c-.015-.381-.045-.93-.229-1.437-.2-.555-.605-1.11-1.348-1.374l-.67 1.884zm.249.966V13.1h2v-.001-.001-.001-.001-.001-.001-.001-.001-.001-.001-.001-.001-.001-.001-.001-.001-.001-.001-.001-.001-.001-.001-.001-.001-.001-.001-.001-.001-.001-.001-.001-.001-.001-.001-.001-.001-.001-.001-.001-.001-.001-.001-.001-.001-.001-.001-.001-.001-.001-.001-.001-.001-.001-.001-.001-.001-.001-.001-.001-.001-.001-.001-.001-.001-.001-.001-.001-.001-.001-.001-.001-.001-.001-.001-.001-.001-.001-.001-.001-.001-.001-.001-.001-.001-.001h-2zm0 .101c.004.29-.017.581-.063.868l1.975.317a7.04 7.04 0 00.088-1.214l-2 .03zm.432.156c-.45.255-2.444 1.267-5.517 1.267v2c3.514 0 5.847-1.155 6.502-1.526l-.985-1.74zM7 14.538c-3.072 0-5.064-1.014-5.518-1.27L.499 15.01c.655.37 2.986 1.528 6.501 1.528v-2zm-5.023-.562a4.842 4.842 0 01-.064-.874l-2-.034c-.007.413.023.827.091 1.235l1.973-.327zm-.064-.891V13h-2v.085h2zm0-.055c.01-.387.04-.648.104-.827a.366.366 0 01.066-.124.168.168 0 01.076-.044l-.666-1.886c-.742.262-1.151.81-1.355 1.37-.186.511-.213 1.063-.225 1.452l2 .059zm.177-.973c1.21-.332 2.36-.857 3.403-1.556L4.38 8.84a9.657 9.657 0 01-2.818 1.289l.528 1.929zm3.42-1.567a1.46 1.46 0 00.6-.943L4.142 9.2a.54.54 0 01.222-.349L5.51 10.49zm.6-.943a1.46 1.46 0 00-.241-1.09L4.23 9.604a.54.54 0 01-.089-.404l1.97.347zm-.241-1.09a1.46 1.46 0 00-.942-.6l-.348 1.969a.54.54 0 01-.349-.222L5.87 8.457zm-.942-.6a1.46 1.46 0 00-1.09.241l1.146 1.638a.54.54 0 01-.404.09l.348-1.97zm-1.073.229c-.778.52-1.635.91-2.538 1.156l.527 1.93a10.696 10.696 0 003.122-1.423l-1.11-1.663zM1.58 9.206h-.034v2h.034v-2zm-.365.057C.129 9.645-.435 10.438-.71 11.19c-.26.71-.277 1.425-.29 1.743l1.998.082c.015-.353.033-.763.17-1.138.123-.335.318-.589.708-.726l-.663-1.887zM-1 12.973V13.058h2v-.001-.001-.001-.001-.001-.001-.001-.001-.001-.001-.001-.001-.001-.001-.001-.001-.001-.001-.001-.001-.001-.001-.001-.001-.001-.001-.001-.001-.001-.001-.001-.001-.001-.001-.001-.001-.001-.001-.001-.001-.001-.001-.001-.001-.001-.001-.001-.001-.001-.001-.001-.001-.001-.001-.001V13 13v-.001-.001-.001-.001-.001-.001-.001-.001-.001-.001-.001-.001-.001-.001-.001-.001-.001-.001-.001-.001-.001-.001-.001-.001-.001-.001-.001h-2zm0 .084c0 .093 0 .393.024.737.022.31.07.783.215 1.162l1.87-.71c-.03-.08-.068-.29-.09-.593A8.57 8.57 0 011 13.057h-2zm.236 1.891c.11.298.317.55.587.717l1.052-1.7a.573.573 0 01.236.287l-1.875.696zm.559.699c.213.142 2.855 1.797 7.207 1.797v-2c-3.846 0-6.106-1.467-6.098-1.461l-1.11 1.664zm7.207 1.797c4.354 0 6.995-1.658 7.201-1.794l-1.1-1.67c.005-.004-2.256 1.464-6.1 1.464v2zm7.18-1.78c.264-.165.467-.41.58-.7l-1.862-.728a.557.557 0 01.224-.27l1.058 1.697zm.585-.713c.143-.379.189-.852.21-1.163.022-.344.02-.644.018-.742l-2 .027c.002.073.003.315-.015.585a4.394 4.394 0 01-.039.38 1.237 1.237 0 01-.046.211l1.872.702zm-1.7-1.52l.005.011 1.857-.742-.005-.012-1.857.743z" mask="url(#user-2)"/>
 
</svg>
