<svg xmlns="http://www.w3.org/2000/svg" fill="none" viewBox="0 0 24 25">
  <path d="M13.665 12.462a3.725 3.725 0 0 1-1.611.329c-.375 0-1.215-.111-1.722-.34A3.849 3.849 0 0 1 9 11.454C7.396 9.57 7.661 6.342 7.692 6.034c.092-2.328 1.171-3.435 2.05-3.953a4.52 4.52 0 0 1 2.236-.58h.07a4.51 4.51 0 0 1 2.237.61c.867.517 1.918 1.624 2.024 3.934.028.308.297 3.537-1.311 5.42-.37.428-.825.768-1.333.997Z"/>
  <path stroke-linecap="round" d="M15.652 14.696a19.216 19.216 0 0 0 5.422 2.31c1.384.46 1.54 1.857 1.591 3.104v.141a9.182 9.182 0 0 1-.13 1.694c-.964.508-4.735 2.272-10.475 2.272-5.74 0-9.506-1.767-10.473-2.276a8.888 8.888 0 0 1-.135-1.716v-.137c.04-1.263.195-2.644 1.59-3.105a19.223 19.223 0 0 0 5.423-2.313"/>
</svg>